<svg width="151" height="20" viewBox="0 0 151 20" fill="none" xmlns="http://www.w3.org/2000/svg">
<path d="M137.821 0C146.186 0 150.412 2.57598 150.412 8.19103C150.412 16.1505 145.144 20 134.29 20C125.926 20 121.7 17.3951 121.7 11.78C121.7 3.82055 126.968 0 137.821 0ZM135.159 14.9638C142.944 14.9638 144.392 13.7482 144.392 8.79884C144.392 5.67294 142.192 5.03618 136.924 5.03618C129.138 5.03618 127.72 6.22287 127.72 11.2012C127.72 14.3271 129.949 14.9638 135.159 14.9638Z" fill="white"/>
<path d="M116.432 15.9188L119.355 19.6815H111.338L107.923 14.5585H98.7187L97.8214 19.6815H91.8301L93.5667 9.78278H110.412C112.409 9.78278 114.146 8.82764 114.146 7.26469C114.146 5.99118 113.046 5.35442 111.193 5.35442H94.3482L99.1528 0.318237H111.599C115.651 0.318237 120.455 1.56281 120.455 6.19378C120.455 9.69595 117.937 12.6482 114.203 13.3718C114.753 13.8638 115.361 14.5585 116.432 15.9188Z" fill="white"/>
<path d="M74.2429 14.7032H90.7408L85.994 19.6815H67.3544L70.7987 0.318237H93.201L88.4253 5.35442H75.8927L75.4875 7.6699H90.7987L86.6308 12.0693H74.706L74.2429 14.7032Z" fill="white"/>
<path d="M66.1564 14.7032L61.6701 19.6815H43.3199C41.9885 19.6815 40.9176 18.9289 40.9176 17.6265C40.9176 16.5556 41.6412 15.6004 42.7121 14.8479L50.7295 9.29074C54.4053 6.74371 55.9393 5.73068 56.7787 5.23864C55.7078 5.32547 53.9422 5.35442 50.0927 5.35442H42.3358L47.0536 0.318237H64.9118C66.2722 0.318237 67.3141 1.04183 67.3141 2.37323C67.3141 3.44414 66.6195 4.39928 65.5486 5.12287L57.3865 10.7958C53.7685 13.3139 52.2635 14.298 51.4241 14.819C52.3793 14.7611 56.113 14.7032 59.1521 14.7032H66.1564Z" fill="white"/>
<path d="M31.486 8.01709H41.1531L37.5641 11.7508H27.897L31.486 8.01709Z" fill="white"/>
<path d="M23.589 9.72489C24.9783 10.1301 25.9913 11.3747 25.9913 13.256C25.9913 16.4109 24.3994 19.6815 17.0188 19.6815H0L2.08394 7.90145H19.2185C20.2026 7.90145 21.1288 7.52518 21.1288 6.36744C21.1288 5.61491 20.4052 5.35442 19.6527 5.35442H2.51809L7.49638 0.318237H20.3184C24.4862 0.318237 27.0333 1.88119 27.0333 4.86238C27.0333 7.64096 25.2677 9.17497 23.589 9.72489ZM18.3792 12.0404H7.35166L6.88857 14.7032H17.9161C19.3922 14.7032 20.0579 14.1243 20.0579 13.1402C20.0579 12.4166 19.5369 12.0404 18.3792 12.0404Z" fill="white"/>
</svg>
