<svg width="622" height="148" viewBox="0 0 622 148" fill="none" xmlns="http://www.w3.org/2000/svg">
<path d="M150.215 35.18C154.655 36.475 157.893 40.4525 157.893 46.465C157.893 56.5475 152.805 67 129.218 67H74.8275L81.4875 29.3525H136.248C139.393 29.3525 142.353 28.15 142.353 24.45C142.353 22.045 140.04 21.2125 137.635 21.2125H82.875L98.785 5.1175H139.763C153.083 5.1175 161.223 10.1125 161.223 19.64C161.223 28.52 155.58 33.4225 150.215 35.18ZM133.565 42.58H98.3225L96.8425 51.09H132.085C136.803 51.09 138.93 49.24 138.93 46.095C138.93 43.7825 137.265 42.58 133.565 42.58ZM175.455 29.7225H206.35L194.88 41.655H163.985L175.455 29.7225ZM286.258 51.09L271.92 67H213.275C209.02 67 205.598 64.595 205.598 60.4325C205.598 57.01 207.91 53.9575 211.333 51.5525L236.955 33.7925C248.703 25.6525 253.605 22.415 256.288 20.8425C252.865 21.12 247.223 21.2125 234.92 21.2125H210.13L225.208 5.1175H282.28C286.628 5.1175 289.958 7.43 289.958 11.685C289.958 15.1075 287.738 18.16 284.315 20.4725L258.23 38.6025C246.668 46.65 241.858 49.795 239.175 51.46C242.228 51.275 254.16 51.09 263.873 51.09H286.258ZM312.104 51.09H364.829L349.659 67H290.089L301.096 5.1175H372.691L357.429 21.2125H317.376L316.081 28.6125H365.014L351.694 42.6725H313.584L312.104 51.09ZM446.937 54.975L456.279 67H430.657L419.742 50.6275H390.327L387.459 67H368.312L373.862 35.365H427.697C434.079 35.365 439.629 32.3125 439.629 27.3175C439.629 23.2475 436.114 21.2125 430.194 21.2125H376.359L391.714 5.1175H431.489C444.439 5.1175 459.794 9.095 459.794 23.895C459.794 35.0875 451.747 44.5225 439.814 46.835C441.572 48.4075 443.514 50.6275 446.937 54.975ZM515.297 4.1C542.029 4.1 555.534 12.3325 555.534 30.2775C555.534 55.715 538.699 68.0175 504.012 68.0175C477.279 68.0175 463.774 59.6925 463.774 41.7475C463.774 16.31 480.609 4.1 515.297 4.1ZM506.787 51.9225C531.669 51.9225 536.294 48.0375 536.294 32.22C536.294 22.23 529.264 20.195 512.429 20.195C487.547 20.195 483.014 23.9875 483.014 39.8975C483.014 49.8875 490.137 51.9225 506.787 51.9225Z" fill="white"/>
<path d="M66.28 141H57.46L45.46 127.74H22.36L20.08 141H13.6L16.84 122.52H45.58C53.74 122.52 61.36 120.06 61.36 113.34C61.36 108 56.08 106.38 48.52 106.38H19.6L24.82 100.86H51.82C60.34 100.86 68.2 103.98 68.2 112.26C68.2 120.54 61.72 125.7 52.42 126.54L66.28 141ZM127.735 141H84.2345L89.1545 135.54H117.115L103.495 107.7L75.1745 141H67.4945L100.255 102.78C101.335 101.52 102.955 100.32 104.935 100.32C106.855 100.32 108.115 101.4 108.775 102.78L127.735 141ZM169.061 141H147.941C136.001 141 128.141 133.5 128.141 123.42C128.141 110.16 140.261 100.86 155.021 100.86H180.401L175.181 106.38H154.061C145.361 106.38 134.621 111.6 134.621 123C134.621 131.46 142.121 135.54 152.441 135.54H174.281L169.061 141ZM184.028 141H177.548L184.688 100.86H191.168L184.028 141ZM229.651 140.16L202.831 108.96L197.191 141H191.311L197.791 104.4C198.271 101.52 200.131 100.32 202.111 100.32C202.891 100.32 203.791 100.62 204.631 101.58L231.451 132.84L237.091 100.68H242.971L236.491 137.28C236.011 140.16 234.151 141.36 232.171 141.36C231.331 141.36 230.431 141.18 229.651 140.16ZM289.017 141H264.777C252.837 141 244.977 133.5 244.977 123.42C244.977 110.16 257.097 100.86 271.857 100.86H297.657L292.497 106.38H270.897C260.217 106.38 251.457 112.98 251.457 123.06C251.457 130.62 257.157 135.54 265.737 135.54H283.497L285.717 122.88H262.317L267.177 117.96H293.097L289.017 141ZM318.173 143.28H314.033L342.953 98.64H346.913L318.173 143.28ZM417.491 141H408.671L396.671 127.74H373.571L371.291 141H364.811L368.051 122.52H396.791C404.951 122.52 412.571 120.06 412.571 113.34C412.571 108 407.291 106.38 399.731 106.38H370.811L376.031 100.86H403.031C411.551 100.86 419.411 103.98 419.411 112.26C419.411 120.54 412.931 125.7 403.631 126.54L417.491 141ZM478.945 141H435.445L440.365 135.54H468.325L454.705 107.7L426.385 141H418.705L451.465 102.78C452.545 101.52 454.165 100.32 456.145 100.32C458.065 100.32 459.325 101.4 459.985 102.78L478.945 141ZM518.812 141H483.112L490.192 100.86H496.672L490.552 135.54H524.032L518.812 141ZM562.757 141H527.057L534.137 100.86H540.617L534.497 135.54H567.977L562.757 141ZM585.678 141H579.198L581.778 126.12L560.898 100.86H569.058L585.858 121.2L609.318 100.86H617.778L588.258 126.12L585.678 141Z" fill="white"/>
</svg>
