<?xml version="1.0" standalone="no"?>
<svg xmlns="http://www.w3.org/2000/svg" width="300" height="300" xmlns:xlink="http://www.w3.org/1999/xlink"><style>.background-color{ fill: #fff; }.dot-color{ fill: #000000; }.corners-square-color-0-0{ fill: #000000; }.corners-dot-color-0-0{ fill: #000000; }.corners-square-color-1-0{ fill: #000000; }.corners-dot-color-1-0{ fill: #000000; }.corners-square-color-0-1{ fill: #000000; }.corners-dot-color-0-1{ fill: #000000; }</style><defs/><g class="dot-color"><rect x="115" y="3" width="14" height="14" transform="rotate(0,122,10)"/><rect x="129" y="3" width="14" height="14" transform="rotate(0,136,10)"/><rect x="143" y="3" width="14" height="14" transform="rotate(0,150,10)"/><rect x="157" y="3" width="14" height="14" transform="rotate(0,164,10)"/><rect x="171" y="3" width="14" height="14" transform="rotate(0,178,10)"/><rect x="115" y="17" width="14" height="14" transform="rotate(0,122,24)"/><rect x="129" y="17" width="14" height="14" transform="rotate(0,136,24)"/><rect x="157" y="17" width="14" height="14" transform="rotate(0,164,24)"/><rect x="171" y="17" width="14" height="14" transform="rotate(0,178,24)"/><rect x="129" y="31" width="14" height="14" transform="rotate(0,136,38)"/><rect x="143" y="31" width="14" height="14" transform="rotate(0,150,38)"/><rect x="157" y="31" width="14" height="14" transform="rotate(0,164,38)"/><rect x="129" y="45" width="14" height="14" transform="rotate(0,136,52)"/><rect x="157" y="45" width="14" height="14" transform="rotate(0,164,52)"/><rect x="171" y="45" width="14" height="14" transform="rotate(0,178,52)"/><rect x="115" y="59" width="14" height="14" transform="rotate(0,122,66)"/><rect x="171" y="59" width="14" height="14" transform="rotate(0,178,66)"/><rect x="115" y="73" width="14" height="14" transform="rotate(0,122,80)"/><rect x="143" y="73" width="14" height="14" transform="rotate(0,150,80)"/><rect x="115" y="87" width="14" height="14" transform="rotate(0,122,94)"/><rect x="143" y="87" width="14" height="14" transform="rotate(0,150,94)"/><rect x="171" y="87" width="14" height="14" transform="rotate(0,178,94)"/><rect x="115" y="101" width="14" height="14" transform="rotate(0,122,108)"/><rect x="129" y="101" width="14" height="14" transform="rotate(0,136,108)"/><rect x="143" y="101" width="14" height="14" transform="rotate(0,150,108)"/><rect x="157" y="101" width="14" height="14" transform="rotate(0,164,108)"/><rect x="3" y="115" width="14" height="14" transform="rotate(0,10,122)"/><rect x="17" y="115" width="14" height="14" transform="rotate(0,24,122)"/><rect x="31" y="115" width="14" height="14" transform="rotate(0,38,122)"/><rect x="73" y="115" width="14" height="14" transform="rotate(0,80,122)"/><rect x="87" y="115" width="14" height="14" transform="rotate(0,94,122)"/><rect x="115" y="115" width="14" height="14" transform="rotate(0,122,122)"/><rect x="129" y="115" width="14" height="14" transform="rotate(0,136,122)"/><rect x="143" y="115" width="14" height="14" transform="rotate(0,150,122)"/><rect x="157" y="115" width="14" height="14" transform="rotate(0,164,122)"/><rect x="171" y="115" width="14" height="14" transform="rotate(0,178,122)"/><rect x="185" y="115" width="14" height="14" transform="rotate(0,192,122)"/><rect x="199" y="115" width="14" height="14" transform="rotate(0,206,122)"/><rect x="213" y="115" width="14" height="14" transform="rotate(0,220,122)"/><rect x="227" y="115" width="14" height="14" transform="rotate(0,234,122)"/><rect x="269" y="115" width="14" height="14" transform="rotate(0,276,122)"/><rect x="283" y="115" width="14" height="14" transform="rotate(0,290,122)"/><rect x="3" y="129" width="14" height="14" transform="rotate(0,10,136)"/><rect x="73" y="129" width="14" height="14" transform="rotate(0,80,136)"/><rect x="115" y="129" width="14" height="14" transform="rotate(0,122,136)"/><rect x="185" y="129" width="14" height="14" transform="rotate(0,192,136)"/><rect x="199" y="129" width="14" height="14" transform="rotate(0,206,136)"/><rect x="227" y="129" width="14" height="14" transform="rotate(0,234,136)"/><rect x="255" y="129" width="14" height="14" transform="rotate(0,262,136)"/><rect x="269" y="129" width="14" height="14" transform="rotate(0,276,136)"/><rect x="283" y="129" width="14" height="14" transform="rotate(0,290,136)"/><rect x="3" y="143" width="14" height="14" transform="rotate(0,10,150)"/><rect x="31" y="143" width="14" height="14" transform="rotate(0,38,150)"/><rect x="73" y="143" width="14" height="14" transform="rotate(0,80,150)"/><rect x="87" y="143" width="14" height="14" transform="rotate(0,94,150)"/><rect x="115" y="143" width="14" height="14" transform="rotate(0,122,150)"/><rect x="129" y="143" width="14" height="14" transform="rotate(0,136,150)"/><rect x="227" y="143" width="14" height="14" transform="rotate(0,234,150)"/><rect x="241" y="143" width="14" height="14" transform="rotate(0,248,150)"/><rect x="283" y="143" width="14" height="14" transform="rotate(0,290,150)"/><rect x="3" y="157" width="14" height="14" transform="rotate(0,10,164)"/><rect x="17" y="157" width="14" height="14" transform="rotate(0,24,164)"/><rect x="101" y="157" width="14" height="14" transform="rotate(0,108,164)"/><rect x="129" y="157" width="14" height="14" transform="rotate(0,136,164)"/><rect x="171" y="157" width="14" height="14" transform="rotate(0,178,164)"/><rect x="227" y="157" width="14" height="14" transform="rotate(0,234,164)"/><rect x="241" y="157" width="14" height="14" transform="rotate(0,248,164)"/><rect x="283" y="157" width="14" height="14" transform="rotate(0,290,164)"/><rect x="17" y="171" width="14" height="14" transform="rotate(0,24,178)"/><rect x="45" y="171" width="14" height="14" transform="rotate(0,52,178)"/><rect x="73" y="171" width="14" height="14" transform="rotate(0,80,178)"/><rect x="87" y="171" width="14" height="14" transform="rotate(0,94,178)"/><rect x="101" y="171" width="14" height="14" transform="rotate(0,108,178)"/><rect x="115" y="171" width="14" height="14" transform="rotate(0,122,178)"/><rect x="185" y="171" width="14" height="14" transform="rotate(0,192,178)"/><rect x="199" y="171" width="14" height="14" transform="rotate(0,206,178)"/><rect x="241" y="171" width="14" height="14" transform="rotate(0,248,178)"/><rect x="269" y="171" width="14" height="14" transform="rotate(0,276,178)"/><rect x="283" y="171" width="14" height="14" transform="rotate(0,290,178)"/><rect x="115" y="185" width="14" height="14" transform="rotate(0,122,192)"/><rect x="129" y="185" width="14" height="14" transform="rotate(0,136,192)"/><rect x="143" y="185" width="14" height="14" transform="rotate(0,150,192)"/><rect x="157" y="185" width="14" height="14" transform="rotate(0,164,192)"/><rect x="185" y="185" width="14" height="14" transform="rotate(0,192,192)"/><rect x="199" y="185" width="14" height="14" transform="rotate(0,206,192)"/><rect x="227" y="185" width="14" height="14" transform="rotate(0,234,192)"/><rect x="241" y="185" width="14" height="14" transform="rotate(0,248,192)"/><rect x="283" y="185" width="14" height="14" transform="rotate(0,290,192)"/><rect x="129" y="199" width="14" height="14" transform="rotate(0,136,206)"/><rect x="143" y="199" width="14" height="14" transform="rotate(0,150,206)"/><rect x="157" y="199" width="14" height="14" transform="rotate(0,164,206)"/><rect x="171" y="199" width="14" height="14" transform="rotate(0,178,206)"/><rect x="185" y="199" width="14" height="14" transform="rotate(0,192,206)"/><rect x="227" y="199" width="14" height="14" transform="rotate(0,234,206)"/><rect x="255" y="199" width="14" height="14" transform="rotate(0,262,206)"/><rect x="283" y="199" width="14" height="14" transform="rotate(0,290,206)"/><rect x="115" y="213" width="14" height="14" transform="rotate(0,122,220)"/><rect x="143" y="213" width="14" height="14" transform="rotate(0,150,220)"/><rect x="157" y="213" width="14" height="14" transform="rotate(0,164,220)"/><rect x="185" y="213" width="14" height="14" transform="rotate(0,192,220)"/><rect x="199" y="213" width="14" height="14" transform="rotate(0,206,220)"/><rect x="227" y="213" width="14" height="14" transform="rotate(0,234,220)"/><rect x="241" y="213" width="14" height="14" transform="rotate(0,248,220)"/><rect x="129" y="227" width="14" height="14" transform="rotate(0,136,234)"/><rect x="143" y="227" width="14" height="14" transform="rotate(0,150,234)"/><rect x="157" y="227" width="14" height="14" transform="rotate(0,164,234)"/><rect x="171" y="227" width="14" height="14" transform="rotate(0,178,234)"/><rect x="185" y="227" width="14" height="14" transform="rotate(0,192,234)"/><rect x="199" y="227" width="14" height="14" transform="rotate(0,206,234)"/><rect x="269" y="227" width="14" height="14" transform="rotate(0,276,234)"/><rect x="143" y="241" width="14" height="14" transform="rotate(0,150,248)"/><rect x="227" y="241" width="14" height="14" transform="rotate(0,234,248)"/><rect x="115" y="255" width="14" height="14" transform="rotate(0,122,262)"/><rect x="143" y="255" width="14" height="14" transform="rotate(0,150,262)"/><rect x="199" y="255" width="14" height="14" transform="rotate(0,206,262)"/><rect x="213" y="255" width="14" height="14" transform="rotate(0,220,262)"/><rect x="227" y="255" width="14" height="14" transform="rotate(0,234,262)"/><rect x="241" y="255" width="14" height="14" transform="rotate(0,248,262)"/><rect x="269" y="255" width="14" height="14" transform="rotate(0,276,262)"/><rect x="283" y="255" width="14" height="14" transform="rotate(0,290,262)"/><rect x="115" y="269" width="14" height="14" transform="rotate(0,122,276)"/><rect x="129" y="269" width="14" height="14" transform="rotate(0,136,276)"/><rect x="171" y="269" width="14" height="14" transform="rotate(0,178,276)"/><rect x="213" y="269" width="14" height="14" transform="rotate(0,220,276)"/><rect x="227" y="269" width="14" height="14" transform="rotate(0,234,276)"/><rect x="241" y="269" width="14" height="14" transform="rotate(0,248,276)"/><rect x="115" y="283" width="14" height="14" transform="rotate(0,122,290)"/><rect x="143" y="283" width="14" height="14" transform="rotate(0,150,290)"/><rect x="199" y="283" width="14" height="14" transform="rotate(0,206,290)"/><rect x="241" y="283" width="14" height="14" transform="rotate(0,248,290)"/><rect x="283" y="283" width="14" height="14" transform="rotate(0,290,290)"/></g><g class="corners-square-color-0-0"><rect x="3" y="3" width="14" height="14" transform="rotate(0,10,10)"/><rect x="3" y="17" width="14" height="14" transform="rotate(0,10,24)"/><rect x="3" y="31" width="14" height="14" transform="rotate(0,10,38)"/><rect x="3" y="45" width="14" height="14" transform="rotate(0,10,52)"/><rect x="3" y="59" width="14" height="14" transform="rotate(0,10,66)"/><rect x="3" y="73" width="14" height="14" transform="rotate(0,10,80)"/><rect x="3" y="87" width="14" height="14" transform="rotate(0,10,94)"/><rect x="17" y="3" width="14" height="14" transform="rotate(0,24,10)"/><rect x="17" y="87" width="14" height="14" transform="rotate(0,24,94)"/><rect x="31" y="3" width="14" height="14" transform="rotate(0,38,10)"/><rect x="31" y="87" width="14" height="14" transform="rotate(0,38,94)"/><rect x="45" y="3" width="14" height="14" transform="rotate(0,52,10)"/><rect x="45" y="87" width="14" height="14" transform="rotate(0,52,94)"/><rect x="59" y="3" width="14" height="14" transform="rotate(0,66,10)"/><rect x="59" y="87" width="14" height="14" transform="rotate(0,66,94)"/><rect x="73" y="3" width="14" height="14" transform="rotate(0,80,10)"/><rect x="73" y="87" width="14" height="14" transform="rotate(0,80,94)"/><rect x="87" y="3" width="14" height="14" transform="rotate(0,94,10)"/><rect x="87" y="17" width="14" height="14" transform="rotate(0,94,24)"/><rect x="87" y="31" width="14" height="14" transform="rotate(0,94,38)"/><rect x="87" y="45" width="14" height="14" transform="rotate(0,94,52)"/><rect x="87" y="59" width="14" height="14" transform="rotate(0,94,66)"/><rect x="87" y="73" width="14" height="14" transform="rotate(0,94,80)"/><rect x="87" y="87" width="14" height="14" transform="rotate(0,94,94)"/></g><g class="corners-dot-color-0-0"><rect x="31" y="31" width="14" height="14" transform="rotate(0,38,38)"/><rect x="31" y="45" width="14" height="14" transform="rotate(0,38,52)"/><rect x="31" y="59" width="14" height="14" transform="rotate(0,38,66)"/><rect x="45" y="31" width="14" height="14" transform="rotate(0,52,38)"/><rect x="45" y="45" width="14" height="14" transform="rotate(0,52,52)"/><rect x="45" y="59" width="14" height="14" transform="rotate(0,52,66)"/><rect x="59" y="31" width="14" height="14" transform="rotate(0,66,38)"/><rect x="59" y="45" width="14" height="14" transform="rotate(0,66,52)"/><rect x="59" y="59" width="14" height="14" transform="rotate(0,66,66)"/></g><g class="corners-square-color-1-0"><rect x="199" y="3" width="14" height="14" transform="rotate(0,206,10)"/><rect x="199" y="17" width="14" height="14" transform="rotate(0,206,24)"/><rect x="199" y="31" width="14" height="14" transform="rotate(0,206,38)"/><rect x="199" y="45" width="14" height="14" transform="rotate(0,206,52)"/><rect x="199" y="59" width="14" height="14" transform="rotate(0,206,66)"/><rect x="199" y="73" width="14" height="14" transform="rotate(0,206,80)"/><rect x="199" y="87" width="14" height="14" transform="rotate(0,206,94)"/><rect x="213" y="3" width="14" height="14" transform="rotate(0,220,10)"/><rect x="213" y="87" width="14" height="14" transform="rotate(0,220,94)"/><rect x="227" y="3" width="14" height="14" transform="rotate(0,234,10)"/><rect x="227" y="87" width="14" height="14" transform="rotate(0,234,94)"/><rect x="241" y="3" width="14" height="14" transform="rotate(0,248,10)"/><rect x="241" y="87" width="14" height="14" transform="rotate(0,248,94)"/><rect x="255" y="3" width="14" height="14" transform="rotate(0,262,10)"/><rect x="255" y="87" width="14" height="14" transform="rotate(0,262,94)"/><rect x="269" y="3" width="14" height="14" transform="rotate(0,276,10)"/><rect x="269" y="87" width="14" height="14" transform="rotate(0,276,94)"/><rect x="283" y="3" width="14" height="14" transform="rotate(0,290,10)"/><rect x="283" y="17" width="14" height="14" transform="rotate(0,290,24)"/><rect x="283" y="31" width="14" height="14" transform="rotate(0,290,38)"/><rect x="283" y="45" width="14" height="14" transform="rotate(0,290,52)"/><rect x="283" y="59" width="14" height="14" transform="rotate(0,290,66)"/><rect x="283" y="73" width="14" height="14" transform="rotate(0,290,80)"/><rect x="283" y="87" width="14" height="14" transform="rotate(0,290,94)"/></g><g class="corners-dot-color-1-0"><rect x="227" y="31" width="14" height="14" transform="rotate(0,234,38)"/><rect x="227" y="45" width="14" height="14" transform="rotate(0,234,52)"/><rect x="227" y="59" width="14" height="14" transform="rotate(0,234,66)"/><rect x="241" y="31" width="14" height="14" transform="rotate(0,248,38)"/><rect x="241" y="45" width="14" height="14" transform="rotate(0,248,52)"/><rect x="241" y="59" width="14" height="14" transform="rotate(0,248,66)"/><rect x="255" y="31" width="14" height="14" transform="rotate(0,262,38)"/><rect x="255" y="45" width="14" height="14" transform="rotate(0,262,52)"/><rect x="255" y="59" width="14" height="14" transform="rotate(0,262,66)"/></g><g class="corners-square-color-0-1"><rect x="3" y="199" width="14" height="14" transform="rotate(0,10,206)"/><rect x="3" y="213" width="14" height="14" transform="rotate(0,10,220)"/><rect x="3" y="227" width="14" height="14" transform="rotate(0,10,234)"/><rect x="3" y="241" width="14" height="14" transform="rotate(0,10,248)"/><rect x="3" y="255" width="14" height="14" transform="rotate(0,10,262)"/><rect x="3" y="269" width="14" height="14" transform="rotate(0,10,276)"/><rect x="3" y="283" width="14" height="14" transform="rotate(0,10,290)"/><rect x="17" y="199" width="14" height="14" transform="rotate(0,24,206)"/><rect x="17" y="283" width="14" height="14" transform="rotate(0,24,290)"/><rect x="31" y="199" width="14" height="14" transform="rotate(0,38,206)"/><rect x="31" y="283" width="14" height="14" transform="rotate(0,38,290)"/><rect x="45" y="199" width="14" height="14" transform="rotate(0,52,206)"/><rect x="45" y="283" width="14" height="14" transform="rotate(0,52,290)"/><rect x="59" y="199" width="14" height="14" transform="rotate(0,66,206)"/><rect x="59" y="283" width="14" height="14" transform="rotate(0,66,290)"/><rect x="73" y="199" width="14" height="14" transform="rotate(0,80,206)"/><rect x="73" y="283" width="14" height="14" transform="rotate(0,80,290)"/><rect x="87" y="199" width="14" height="14" transform="rotate(0,94,206)"/><rect x="87" y="213" width="14" height="14" transform="rotate(0,94,220)"/><rect x="87" y="227" width="14" height="14" transform="rotate(0,94,234)"/><rect x="87" y="241" width="14" height="14" transform="rotate(0,94,248)"/><rect x="87" y="255" width="14" height="14" transform="rotate(0,94,262)"/><rect x="87" y="269" width="14" height="14" transform="rotate(0,94,276)"/><rect x="87" y="283" width="14" height="14" transform="rotate(0,94,290)"/></g><g class="corners-dot-color-0-1"><rect x="31" y="227" width="14" height="14" transform="rotate(0,38,234)"/><rect x="31" y="241" width="14" height="14" transform="rotate(0,38,248)"/><rect x="31" y="255" width="14" height="14" transform="rotate(0,38,262)"/><rect x="45" y="227" width="14" height="14" transform="rotate(0,52,234)"/><rect x="45" y="241" width="14" height="14" transform="rotate(0,52,248)"/><rect x="45" y="255" width="14" height="14" transform="rotate(0,52,262)"/><rect x="59" y="227" width="14" height="14" transform="rotate(0,66,234)"/><rect x="59" y="241" width="14" height="14" transform="rotate(0,66,248)"/><rect x="59" y="255" width="14" height="14" transform="rotate(0,66,262)"/></g></svg>