<?xml version="1.0" standalone="no"?>
<svg xmlns="http://www.w3.org/2000/svg" width="300" height="300" xmlns:xlink="http://www.w3.org/1999/xlink"><style>.background-color{ fill: #fff; }.dot-color{ fill: #000000; }.corners-square-color-0-0{ fill: #000000; }.corners-dot-color-0-0{ fill: #000000; }.corners-square-color-1-0{ fill: #000000; }.corners-dot-color-1-0{ fill: #000000; }.corners-square-color-0-1{ fill: #000000; }.corners-dot-color-0-1{ fill: #000000; }</style><defs/><g class="dot-color"><rect x="115" y="3" width="14" height="14" transform="rotate(0,122,10)"/><rect x="129" y="3" width="14" height="14" transform="rotate(0,136,10)"/><rect x="143" y="3" width="14" height="14" transform="rotate(0,150,10)"/><rect x="115" y="17" width="14" height="14" transform="rotate(0,122,24)"/><rect x="129" y="17" width="14" height="14" transform="rotate(0,136,24)"/><rect x="157" y="17" width="14" height="14" transform="rotate(0,164,24)"/><rect x="171" y="17" width="14" height="14" transform="rotate(0,178,24)"/><rect x="115" y="31" width="14" height="14" transform="rotate(0,122,38)"/><rect x="129" y="31" width="14" height="14" transform="rotate(0,136,38)"/><rect x="143" y="31" width="14" height="14" transform="rotate(0,150,38)"/><rect x="171" y="31" width="14" height="14" transform="rotate(0,178,38)"/><rect x="115" y="45" width="14" height="14" transform="rotate(0,122,52)"/><rect x="129" y="45" width="14" height="14" transform="rotate(0,136,52)"/><rect x="143" y="45" width="14" height="14" transform="rotate(0,150,52)"/><rect x="171" y="45" width="14" height="14" transform="rotate(0,178,52)"/><rect x="129" y="59" width="14" height="14" transform="rotate(0,136,66)"/><rect x="143" y="59" width="14" height="14" transform="rotate(0,150,66)"/><rect x="115" y="73" width="14" height="14" transform="rotate(0,122,80)"/><rect x="143" y="73" width="14" height="14" transform="rotate(0,150,80)"/><rect x="157" y="73" width="14" height="14" transform="rotate(0,164,80)"/><rect x="171" y="73" width="14" height="14" transform="rotate(0,178,80)"/><rect x="115" y="87" width="14" height="14" transform="rotate(0,122,94)"/><rect x="143" y="87" width="14" height="14" transform="rotate(0,150,94)"/><rect x="171" y="87" width="14" height="14" transform="rotate(0,178,94)"/><rect x="171" y="101" width="14" height="14" transform="rotate(0,178,108)"/><rect x="3" y="115" width="14" height="14" transform="rotate(0,10,122)"/><rect x="17" y="115" width="14" height="14" transform="rotate(0,24,122)"/><rect x="59" y="115" width="14" height="14" transform="rotate(0,66,122)"/><rect x="73" y="115" width="14" height="14" transform="rotate(0,80,122)"/><rect x="87" y="115" width="14" height="14" transform="rotate(0,94,122)"/><rect x="171" y="115" width="14" height="14" transform="rotate(0,178,122)"/><rect x="213" y="115" width="14" height="14" transform="rotate(0,220,122)"/><rect x="241" y="115" width="14" height="14" transform="rotate(0,248,122)"/><rect x="255" y="115" width="14" height="14" transform="rotate(0,262,122)"/><rect x="269" y="115" width="14" height="14" transform="rotate(0,276,122)"/><rect x="283" y="115" width="14" height="14" transform="rotate(0,290,122)"/><rect x="3" y="129" width="14" height="14" transform="rotate(0,10,136)"/><rect x="59" y="129" width="14" height="14" transform="rotate(0,66,136)"/><rect x="73" y="129" width="14" height="14" transform="rotate(0,80,136)"/><rect x="101" y="129" width="14" height="14" transform="rotate(0,108,136)"/><rect x="129" y="129" width="14" height="14" transform="rotate(0,136,136)"/><rect x="143" y="129" width="14" height="14" transform="rotate(0,150,136)"/><rect x="185" y="129" width="14" height="14" transform="rotate(0,192,136)"/><rect x="199" y="129" width="14" height="14" transform="rotate(0,206,136)"/><rect x="227" y="129" width="14" height="14" transform="rotate(0,234,136)"/><rect x="241" y="129" width="14" height="14" transform="rotate(0,248,136)"/><rect x="269" y="129" width="14" height="14" transform="rotate(0,276,136)"/><rect x="31" y="143" width="14" height="14" transform="rotate(0,38,150)"/><rect x="59" y="143" width="14" height="14" transform="rotate(0,66,150)"/><rect x="87" y="143" width="14" height="14" transform="rotate(0,94,150)"/><rect x="115" y="143" width="14" height="14" transform="rotate(0,122,150)"/><rect x="143" y="143" width="14" height="14" transform="rotate(0,150,150)"/><rect x="185" y="143" width="14" height="14" transform="rotate(0,192,150)"/><rect x="227" y="143" width="14" height="14" transform="rotate(0,234,150)"/><rect x="17" y="157" width="14" height="14" transform="rotate(0,24,164)"/><rect x="45" y="157" width="14" height="14" transform="rotate(0,52,164)"/><rect x="73" y="157" width="14" height="14" transform="rotate(0,80,164)"/><rect x="157" y="157" width="14" height="14" transform="rotate(0,164,164)"/><rect x="171" y="157" width="14" height="14" transform="rotate(0,178,164)"/><rect x="185" y="157" width="14" height="14" transform="rotate(0,192,164)"/><rect x="213" y="157" width="14" height="14" transform="rotate(0,220,164)"/><rect x="283" y="157" width="14" height="14" transform="rotate(0,290,164)"/><rect x="3" y="171" width="14" height="14" transform="rotate(0,10,178)"/><rect x="45" y="171" width="14" height="14" transform="rotate(0,52,178)"/><rect x="87" y="171" width="14" height="14" transform="rotate(0,94,178)"/><rect x="101" y="171" width="14" height="14" transform="rotate(0,108,178)"/><rect x="129" y="171" width="14" height="14" transform="rotate(0,136,178)"/><rect x="157" y="171" width="14" height="14" transform="rotate(0,164,178)"/><rect x="185" y="171" width="14" height="14" transform="rotate(0,192,178)"/><rect x="241" y="171" width="14" height="14" transform="rotate(0,248,178)"/><rect x="269" y="171" width="14" height="14" transform="rotate(0,276,178)"/><rect x="283" y="171" width="14" height="14" transform="rotate(0,290,178)"/><rect x="115" y="185" width="14" height="14" transform="rotate(0,122,192)"/><rect x="143" y="185" width="14" height="14" transform="rotate(0,150,192)"/><rect x="185" y="185" width="14" height="14" transform="rotate(0,192,192)"/><rect x="199" y="185" width="14" height="14" transform="rotate(0,206,192)"/><rect x="213" y="185" width="14" height="14" transform="rotate(0,220,192)"/><rect x="227" y="185" width="14" height="14" transform="rotate(0,234,192)"/><rect x="269" y="185" width="14" height="14" transform="rotate(0,276,192)"/><rect x="129" y="199" width="14" height="14" transform="rotate(0,136,206)"/><rect x="143" y="199" width="14" height="14" transform="rotate(0,150,206)"/><rect x="157" y="199" width="14" height="14" transform="rotate(0,164,206)"/><rect x="185" y="199" width="14" height="14" transform="rotate(0,192,206)"/><rect x="199" y="199" width="14" height="14" transform="rotate(0,206,206)"/><rect x="227" y="199" width="14" height="14" transform="rotate(0,234,206)"/><rect x="241" y="199" width="14" height="14" transform="rotate(0,248,206)"/><rect x="255" y="199" width="14" height="14" transform="rotate(0,262,206)"/><rect x="269" y="199" width="14" height="14" transform="rotate(0,276,206)"/><rect x="115" y="213" width="14" height="14" transform="rotate(0,122,220)"/><rect x="171" y="213" width="14" height="14" transform="rotate(0,178,220)"/><rect x="185" y="213" width="14" height="14" transform="rotate(0,192,220)"/><rect x="115" y="227" width="14" height="14" transform="rotate(0,122,234)"/><rect x="129" y="227" width="14" height="14" transform="rotate(0,136,234)"/><rect x="157" y="227" width="14" height="14" transform="rotate(0,164,234)"/><rect x="171" y="227" width="14" height="14" transform="rotate(0,178,234)"/><rect x="185" y="227" width="14" height="14" transform="rotate(0,192,234)"/><rect x="213" y="227" width="14" height="14" transform="rotate(0,220,234)"/><rect x="227" y="227" width="14" height="14" transform="rotate(0,234,234)"/><rect x="269" y="227" width="14" height="14" transform="rotate(0,276,234)"/><rect x="283" y="227" width="14" height="14" transform="rotate(0,290,234)"/><rect x="129" y="241" width="14" height="14" transform="rotate(0,136,248)"/><rect x="143" y="241" width="14" height="14" transform="rotate(0,150,248)"/><rect x="185" y="241" width="14" height="14" transform="rotate(0,192,248)"/><rect x="227" y="241" width="14" height="14" transform="rotate(0,234,248)"/><rect x="241" y="241" width="14" height="14" transform="rotate(0,248,248)"/><rect x="255" y="241" width="14" height="14" transform="rotate(0,262,248)"/><rect x="283" y="241" width="14" height="14" transform="rotate(0,290,248)"/><rect x="185" y="255" width="14" height="14" transform="rotate(0,192,262)"/><rect x="227" y="255" width="14" height="14" transform="rotate(0,234,262)"/><rect x="115" y="269" width="14" height="14" transform="rotate(0,122,276)"/><rect x="143" y="269" width="14" height="14" transform="rotate(0,150,276)"/><rect x="157" y="269" width="14" height="14" transform="rotate(0,164,276)"/><rect x="171" y="269" width="14" height="14" transform="rotate(0,178,276)"/><rect x="185" y="269" width="14" height="14" transform="rotate(0,192,276)"/><rect x="213" y="269" width="14" height="14" transform="rotate(0,220,276)"/><rect x="115" y="283" width="14" height="14" transform="rotate(0,122,290)"/><rect x="129" y="283" width="14" height="14" transform="rotate(0,136,290)"/><rect x="157" y="283" width="14" height="14" transform="rotate(0,164,290)"/><rect x="185" y="283" width="14" height="14" transform="rotate(0,192,290)"/><rect x="241" y="283" width="14" height="14" transform="rotate(0,248,290)"/><rect x="283" y="283" width="14" height="14" transform="rotate(0,290,290)"/></g><g class="corners-square-color-0-0"><path clip-rule="evenodd" d="M 3 3v 98h 98v -98zM 17 17h 70v 70h -70z" transform="rotate(0,52,52)"/></g><g class="corners-dot-color-0-0"><rect x="31" y="31" width="14" height="14" transform="rotate(0,38,38)"/><rect x="31" y="45" width="14" height="14" transform="rotate(0,38,52)"/><rect x="31" y="59" width="14" height="14" transform="rotate(0,38,66)"/><rect x="45" y="31" width="14" height="14" transform="rotate(0,52,38)"/><rect x="45" y="45" width="14" height="14" transform="rotate(0,52,52)"/><rect x="45" y="59" width="14" height="14" transform="rotate(0,52,66)"/><rect x="59" y="31" width="14" height="14" transform="rotate(0,66,38)"/><rect x="59" y="45" width="14" height="14" transform="rotate(0,66,52)"/><rect x="59" y="59" width="14" height="14" transform="rotate(0,66,66)"/></g><g class="corners-square-color-1-0"><path clip-rule="evenodd" d="M 199 3v 98h 98v -98zM 213 17h 70v 70h -70z" transform="rotate(90,248,52)"/></g><g class="corners-dot-color-1-0"><rect x="227" y="31" width="14" height="14" transform="rotate(0,234,38)"/><rect x="227" y="45" width="14" height="14" transform="rotate(0,234,52)"/><rect x="227" y="59" width="14" height="14" transform="rotate(0,234,66)"/><rect x="241" y="31" width="14" height="14" transform="rotate(0,248,38)"/><rect x="241" y="45" width="14" height="14" transform="rotate(0,248,52)"/><rect x="241" y="59" width="14" height="14" transform="rotate(0,248,66)"/><rect x="255" y="31" width="14" height="14" transform="rotate(0,262,38)"/><rect x="255" y="45" width="14" height="14" transform="rotate(0,262,52)"/><rect x="255" y="59" width="14" height="14" transform="rotate(0,262,66)"/></g><g class="corners-square-color-0-1"><path clip-rule="evenodd" d="M 3 199v 98h 98v -98zM 17 213h 70v 70h -70z" transform="rotate(-90,52,248)"/></g><g class="corners-dot-color-0-1"><rect x="31" y="227" width="14" height="14" transform="rotate(0,38,234)"/><rect x="31" y="241" width="14" height="14" transform="rotate(0,38,248)"/><rect x="31" y="255" width="14" height="14" transform="rotate(0,38,262)"/><rect x="45" y="227" width="14" height="14" transform="rotate(0,52,234)"/><rect x="45" y="241" width="14" height="14" transform="rotate(0,52,248)"/><rect x="45" y="255" width="14" height="14" transform="rotate(0,52,262)"/><rect x="59" y="227" width="14" height="14" transform="rotate(0,66,234)"/><rect x="59" y="241" width="14" height="14" transform="rotate(0,66,248)"/><rect x="59" y="255" width="14" height="14" transform="rotate(0,66,262)"/></g></svg>